<svg id="Layer_1" data-name="Layer 1" xmlns="http://www.w3.org/2000/svg" viewBox="0 0 600 119"><defs><style>.cls-1{fill:#fff;}</style></defs><title>Artboard 1</title><path class="cls-1" d="M0,2.8H11.3V116.2H0Z"/><path class="cls-1" d="M32.7,116.2V2.8h2.5l75.5,86.9V2.8h11.2V116.2h-2.5l-75-85.9v85.9Z"/><path class="cls-1" d="M144.6,2.8h56.8V13.9H156V49.4h45.5V60.5H156v55.7H144.7V2.8Z"/><path class="cls-1" d="M270.5-.1q25.8,0,43.1,17.2C325.2,28.6,331,42.7,331,59.5c0,16.6-5.8,30.7-17.3,42.2S288.1,119,271.5,119c-16.8,0-31-5.8-42.6-17.3a56.63,56.63,0,0,1-17.4-41.8,60.11,60.11,0,0,1,7.9-30.3A58.23,58.23,0,0,1,241,7.7,59.12,59.12,0,0,1,270.5-.1ZM271,11a46.84,46.84,0,0,0-23.9,6.6,47.45,47.45,0,0,0-17.6,17.7,49.44,49.44,0,0,0-6.3,24.8c0,13.5,4.7,24.9,14,34.1A46,46,0,0,0,271,108.1a48.09,48.09,0,0,0,24.4-6.4,46,46,0,0,0,17.5-17.5,49.07,49.07,0,0,0,6.3-24.7,48,48,0,0,0-6.3-24.4A49.2,49.2,0,0,0,271,11Z"/><path class="cls-1" d="M349.6,2.8h22.6c12.6,0,21.1.5,25.6,1.5a28.78,28.78,0,0,1,16.4,9.9c4.2,5.1,6.3,11.3,6.3,18.7a30.35,30.35,0,0,1-4.4,16.3,27.18,27.18,0,0,1-12.5,10.6c-5.4,2.4-12.9,3.6-22.4,3.7L422,116.2H408L367.2,63.5h-6.4v52.7H349.5V2.8Zm11.3,11.1V52.4l19.5.2c7.6,0,13.2-.7,16.8-2.2a17.06,17.06,0,0,0,8.5-6.9,19.52,19.52,0,0,0,3-10.6,18.37,18.37,0,0,0-11.2-17.1c-3.3-1.3-8.9-2-16.7-2H360.9Z"/><path class="cls-1" d="M434.9,116.2,451.1,2.8h1.8L499,95.9,544.7,2.8h1.8l16.3,113.4H551.7L540.5,35.1l-40.1,81.1h-2.9L457,34.5l-11.1,81.7Z"/><path class="cls-1" d="M590.5,99.2a8.91,8.91,0,0,1,6.7,2.8,9.13,9.13,0,0,1,2.8,6.8,9.48,9.48,0,0,1-16.2,6.7,9.54,9.54,0,0,1,0-13.5A9.47,9.47,0,0,1,590.5,99.2Z"/></svg>