<svg id="Layer_1" data-name="Layer 1" xmlns="http://www.w3.org/2000/svg" viewBox="0 0 44 32"><defs><style>.cls-1{fill:#fff;}</style></defs><title>Artboard 1</title><path class="cls-1" d="M39.7,5.1H15.2A1.2,1.2,0,0,1,14,4V3.9a1.11,1.11,0,0,1,1.1-1.1H39.6a1.11,1.11,0,0,1,1.1,1.1V4C40.9,4.6,40.3,5.1,39.7,5.1Z"/><path class="cls-1" d="M39.7,17.1H15.2A1.11,1.11,0,0,1,14.1,16v-.1a1.11,1.11,0,0,1,1.1-1.1H39.7a1.11,1.11,0,0,1,1.1,1.1V16C40.9,16.5,40.3,17.1,39.7,17.1Z"/><path class="cls-1" d="M39.7,29H15.2a1.11,1.11,0,0,1-1.1-1.1v-.1a1.11,1.11,0,0,1,1.1-1.1H39.7a1.11,1.11,0,0,1,1.1,1.1v.1A1,1,0,0,1,39.7,29Z"/><path class="cls-1" d="M3.2,24.2h7.1v.6H3.9l6.4,2.8v.5L3.9,30.9h6.4v.6H3.2v-.8l6.4-2.8L3.2,25Z"/><path class="cls-1" d="M6.8,14.7a3.49,3.49,0,0,1,3.6,3.7,3.55,3.55,0,0,1-3.6,3.7,3.49,3.49,0,0,1-3.6-3.7A3.49,3.49,0,0,1,6.8,14.7Zm0,6.8a3,3,0,0,0,3.1-3.1,3,3,0,0,0-3.1-3.1,3,3,0,0,0-3.1,3.1A3,3,0,0,0,6.8,21.5Z"/><path class="cls-1" d="M10.3,7.5v.6a6.66,6.66,0,0,1-1.6.1A1.24,1.24,0,0,0,7.3,9.5V12h3.1v.6H3.2v-3A1.85,1.85,0,0,1,5.1,7.5,1.75,1.75,0,0,1,6.9,8.8,1.56,1.56,0,0,1,8.6,7.6,6.7,6.7,0,0,0,10.3,7.5Zm-5,.7A1.42,1.42,0,0,0,3.8,9.7V12h3V9.7A1.42,1.42,0,0,0,5.3,8.2Z"/><path class="cls-1" d="M3.8,4.7H6.5V.9H7V4.7H9.8V.6h.5V5.3H3.2V.6h.5V4.7Z"/></svg>