<svg id="Layer_1" data-name="Layer 1" xmlns="http://www.w3.org/2000/svg" viewBox="0 0 44 32"><defs><style>.cls-1{fill:#fff;}</style></defs><title>Artboard 1</title><path class="cls-1" d="M39.4,6.3l-21,21a1.22,1.22,0,0,1-1.6,0l-.1-.1a1.22,1.22,0,0,1,0-1.6l21-21a1.22,1.22,0,0,1,1.6,0l.1.1A1.21,1.21,0,0,1,39.4,6.3Z"/><path class="cls-1" d="M37.7,27.4l-21-21a1.22,1.22,0,0,1,0-1.6l.1-.1a1.22,1.22,0,0,1,1.6,0l21,21a1.22,1.22,0,0,1,0,1.6l-.1.1A1.21,1.21,0,0,1,37.7,27.4Z"/><path class="cls-1" d="M4.8,26.5H7.5V22.7H8v3.8h2.8V22.4h.5v4.7h-7V22.4h.5Z"/><path class="cls-1" d="M11.4,15.3,8.2,17.7l3.2,2.4v.7L7.8,18.1,4.3,20.7V20l3.1-2.3L4.3,15.4v-.7l3.5,2.6,3.6-2.7Z"/><path class="cls-1" d="M11.4,12.1v.6H4.3v-.6Z"/><path class="cls-1" d="M4.8,4.9V7.3h6.6v.6H4.8v2.4H4.3V4.9Z"/></svg>